<svg xmlns="http://www.w3.org/2000/svg" viewBox="0 0 9950.0 1075.0" role="img" aria-label="ricecooker">
<g fill="#D97757" transform="translate(-25.00,1100.00) scale(1,-1)">
<path d="M375 625H500V500H375V125H125V750H375ZM875 750V625H500V750Z" transform="translate(0.00,0)"/>
<path d="M375 875V1000H625V875ZM125 125V250H375V625H250V750H625V250H875V125Z" transform="translate(1000.00,0)"/>
<path d="M125 125V250H0V625H125V750H875V625H250V250H875V125Z" transform="translate(2000.00,0)"/>
<path d="M125 125V250H0V625H125V750H750V625H875V375H250V250H750V125ZM250 500H625V625H250Z" transform="translate(3000.00,0)"/>
<path d="M125 125V250H0V625H125V750H875V625H250V250H875V125Z" transform="translate(4000.00,0)"/>
<path d="M125 125V250H0V625H125V750H750V625H875V250H750V125ZM250 250H625V625H250Z" transform="translate(5000.00,0)"/>
<path d="M125 125V250H0V625H125V750H750V625H875V250H750V125ZM250 250H625V625H250Z" transform="translate(6000.00,0)"/>
<path d="M0 125V1000H250V500H500V625H625V750H875V625H750V500H625V375H750V250H875V125H625V250H500V375H250V125Z" transform="translate(7000.00,0)"/>
<path d="M125 125V250H0V625H125V750H750V625H875V375H250V250H750V125ZM250 500H625V625H250Z" transform="translate(8000.00,0)"/>
<path d="M375 625H500V500H375V125H125V750H375ZM875 750V625H500V750Z" transform="translate(9000.00,0)"/>
</g>
</svg>
