<svg xmlns="http://www.w3.org/2000/svg" viewBox="0 0 4128.0 760.0" role="img" aria-label="ricecooker">
<g fill="#D97757" transform="translate(64.00,660.00) scale(1,-1)">
<path d="M364 280Q364 257 360 240H280Q276 257 276 280Q276 304 280 320H210Q214 304 214 280Q214 257 210 240H180Q184 224 184 200Q184 177 180 160Q184 144 184 120Q184 97 180 80H240Q244 64 244 40Q244 17 240 0H40Q36 17 36 40Q36 64 40 80H100Q96 97 96 120Q96 144 100 160Q96 177 96 200Q96 224 100 240Q96 257 96 280Q96 304 100 320H40Q36 337 36 360Q36 384 40 400H140Q144 384 144 360Q144 337 140 320H180Q176 337 176 360Q176 384 180 400H330Q334 384 334 360Q334 337 330 320H360Q364 304 364 280Z" transform="translate(0.00,0)"/>
<path d="M160 480Q156 497 156 520Q156 544 160 560H240Q244 544 244 520Q244 497 240 480ZM324 40Q324 17 320 0H80Q76 17 76 40Q76 64 80 80H160Q156 97 156 120Q156 144 160 160Q156 177 156 200Q156 224 160 240Q156 257 156 280Q156 304 160 320H100Q96 337 96 360Q96 384 100 400H240Q244 384 244 360Q244 337 240 320Q244 304 244 280Q244 257 240 240Q244 224 244 200Q244 177 240 160Q244 144 244 120Q244 97 240 80H320Q324 64 324 40Z" transform="translate(400.00,0)"/>
<path d="M360 160Q364 144 364 120Q364 97 360 80H320Q324 64 324 40Q324 17 320 0H120Q116 17 116 40Q116 64 120 80H80Q76 97 76 120Q76 144 80 160H40Q36 177 36 200Q36 224 40 240H80Q76 257 76 280Q76 304 80 320H120Q116 337 116 360Q116 384 120 400H320Q324 384 324 360Q324 337 320 320H360Q364 304 364 280Q364 257 360 240H280Q276 257 276 280Q276 304 280 320H160Q164 304 164 280Q164 257 160 240H120Q124 224 124 200Q124 177 120 160H160Q164 144 164 120Q164 97 160 80H280Q276 97 276 120Q276 144 280 160Z" transform="translate(800.00,0)"/>
<path d="M360 240Q364 224 364 200Q364 177 360 160H150Q154 144 154 120Q154 97 150 80H320Q324 64 324 40Q324 17 320 0H120Q116 17 116 40Q116 64 120 80H70Q66 97 66 120Q66 144 70 160H40Q36 177 36 200Q36 224 40 240H70Q66 257 66 280Q66 304 70 320H120Q116 337 116 360Q116 384 120 400H320Q324 384 324 360Q324 337 320 320H360Q364 304 364 280Q364 257 360 240ZM276 280Q276 304 280 320H150Q154 304 154 280Q154 257 150 240H280Q276 257 276 280Z" transform="translate(1200.00,0)"/>
<path d="M360 160Q364 144 364 120Q364 97 360 80H320Q324 64 324 40Q324 17 320 0H120Q116 17 116 40Q116 64 120 80H80Q76 97 76 120Q76 144 80 160H40Q36 177 36 200Q36 224 40 240H80Q76 257 76 280Q76 304 80 320H120Q116 337 116 360Q116 384 120 400H320Q324 384 324 360Q324 337 320 320H360Q364 304 364 280Q364 257 360 240H280Q276 257 276 280Q276 304 280 320H160Q164 304 164 280Q164 257 160 240H120Q124 224 124 200Q124 177 120 160H160Q164 144 164 120Q164 97 160 80H280Q276 97 276 120Q276 144 280 160Z" transform="translate(1600.00,0)"/>
<path d="M360 160H330Q334 144 334 120Q334 97 330 80H280Q284 64 284 40Q284 17 280 0H120Q116 17 116 40Q116 64 120 80H70Q66 97 66 120Q66 144 70 160H40Q36 177 36 200Q36 224 40 240H70Q66 257 66 280Q66 304 70 320H120Q116 337 116 360Q116 384 120 400H280Q284 384 284 360Q284 337 280 320H330Q334 304 334 280Q334 257 330 240H360Q364 224 364 200Q364 177 360 160ZM280 160Q276 177 276 200Q276 224 280 240H250Q246 257 246 280Q246 304 250 320H150Q154 304 154 280Q154 257 150 240H120Q124 224 124 200Q124 177 120 160H150Q154 144 154 120Q154 97 150 80H250Q246 97 246 120Q246 144 250 160Z" transform="translate(2000.00,0)"/>
<path d="M360 160H330Q334 144 334 120Q334 97 330 80H280Q284 64 284 40Q284 17 280 0H120Q116 17 116 40Q116 64 120 80H70Q66 97 66 120Q66 144 70 160H40Q36 177 36 200Q36 224 40 240H70Q66 257 66 280Q66 304 70 320H120Q116 337 116 360Q116 384 120 400H280Q284 384 284 360Q284 337 280 320H330Q334 304 334 280Q334 257 330 240H360Q364 224 364 200Q364 177 360 160ZM280 160Q276 177 276 200Q276 224 280 240H250Q246 257 246 280Q246 304 250 320H150Q154 304 154 280Q154 257 150 240H120Q124 224 124 200Q124 177 120 160H150Q154 144 154 120Q154 97 150 80H250Q246 97 246 120Q246 144 250 160Z" transform="translate(2400.00,0)"/>
<path d="M364 40Q364 17 360 0H220Q216 17 216 40Q216 64 220 80H180Q176 97 176 120Q176 144 180 160H120Q124 144 124 120Q124 97 120 80Q124 64 124 40Q124 17 120 0H40Q36 17 36 40Q36 64 40 80Q36 97 36 120Q36 144 40 160Q36 177 36 200Q36 224 40 240Q36 257 36 280Q36 304 40 320Q36 337 36 360Q36 384 40 400Q36 417 36 440Q36 464 40 480Q36 497 36 520Q36 544 40 560H120Q124 544 124 520Q124 497 120 480Q124 464 124 440Q124 417 120 400Q124 384 124 360Q124 337 120 320Q124 304 124 280Q124 257 120 240H180Q176 257 176 280Q176 304 180 320H220Q216 337 216 360Q216 384 220 400H340Q344 384 344 360Q344 337 340 320H260Q264 304 264 280Q264 257 260 240H220Q224 224 224 200Q224 177 220 160H260Q264 144 264 120Q264 97 260 80H360Q364 64 364 40Z" transform="translate(2800.00,0)"/>
<path d="M360 240Q364 224 364 200Q364 177 360 160H150Q154 144 154 120Q154 97 150 80H320Q324 64 324 40Q324 17 320 0H120Q116 17 116 40Q116 64 120 80H70Q66 97 66 120Q66 144 70 160H40Q36 177 36 200Q36 224 40 240H70Q66 257 66 280Q66 304 70 320H120Q116 337 116 360Q116 384 120 400H320Q324 384 324 360Q324 337 320 320H360Q364 304 364 280Q364 257 360 240ZM276 280Q276 304 280 320H150Q154 304 154 280Q154 257 150 240H280Q276 257 276 280Z" transform="translate(3200.00,0)"/>
<path d="M364 280Q364 257 360 240H280Q276 257 276 280Q276 304 280 320H210Q214 304 214 280Q214 257 210 240H180Q184 224 184 200Q184 177 180 160Q184 144 184 120Q184 97 180 80H240Q244 64 244 40Q244 17 240 0H40Q36 17 36 40Q36 64 40 80H100Q96 97 96 120Q96 144 100 160Q96 177 96 200Q96 224 100 240Q96 257 96 280Q96 304 100 320H40Q36 337 36 360Q36 384 40 400H140Q144 384 144 360Q144 337 140 320H180Q176 337 176 360Q176 384 180 400H330Q334 384 334 360Q334 337 330 320H360Q364 304 364 280Z" transform="translate(3600.00,0)"/>
</g>
</svg>
