<svg xmlns="http://www.w3.org/2000/svg" viewBox="0 0 16 16" shape-rendering="crispEdges" width="512" height="512" role="img" aria-label="ricecooker icon tile">
<rect x="0" y="0" width="16" height="16" rx="3" fill="#120E0A"/>
<rect x="4.000" y="1.000" width="1.020" height="1.020" fill="#ECA982"/>
<rect x="10.000" y="1.000" width="1.020" height="1.020" fill="#ECA982"/>
<rect x="5.000" y="2.000" width="1.020" height="1.020" fill="#ECA982"/>
<rect x="9.000" y="2.000" width="1.020" height="1.020" fill="#ECA982"/>
<rect x="4.000" y="3.000" width="1.020" height="1.020" fill="#ECA982"/>
<rect x="10.000" y="3.000" width="1.020" height="1.020" fill="#ECA982"/>
<rect x="4.000" y="5.000" width="1.020" height="1.020" fill="#D97757"/>
<rect x="5.000" y="5.000" width="1.020" height="1.020" fill="#D97757"/>
<rect x="6.000" y="5.000" width="1.020" height="1.020" fill="#D97757"/>
<rect x="7.000" y="5.000" width="1.020" height="1.020" fill="#D97757"/>
<rect x="8.000" y="5.000" width="1.020" height="1.020" fill="#D97757"/>
<rect x="9.000" y="5.000" width="1.020" height="1.020" fill="#D97757"/>
<rect x="3.000" y="6.000" width="1.020" height="1.020" fill="#D97757"/>
<rect x="4.000" y="6.000" width="1.020" height="1.020" fill="#D97757"/>
<rect x="5.000" y="6.000" width="1.020" height="1.020" fill="#D97757"/>
<rect x="6.000" y="6.000" width="1.020" height="1.020" fill="#D97757"/>
<rect x="7.000" y="6.000" width="1.020" height="1.020" fill="#D97757"/>
<rect x="8.000" y="6.000" width="1.020" height="1.020" fill="#D97757"/>
<rect x="9.000" y="6.000" width="1.020" height="1.020" fill="#D97757"/>
<rect x="10.000" y="6.000" width="1.020" height="1.020" fill="#D97757"/>
<rect x="2.000" y="7.000" width="1.020" height="1.020" fill="#D97757"/>
<rect x="3.000" y="7.000" width="1.020" height="1.020" fill="#D97757"/>
<rect x="4.000" y="7.000" width="1.020" height="1.020" fill="#D97757"/>
<rect x="5.000" y="7.000" width="1.020" height="1.020" fill="#D97757"/>
<rect x="6.000" y="7.000" width="1.020" height="1.020" fill="#D97757"/>
<rect x="7.000" y="7.000" width="1.020" height="1.020" fill="#D97757"/>
<rect x="8.000" y="7.000" width="1.020" height="1.020" fill="#D97757"/>
<rect x="9.000" y="7.000" width="1.020" height="1.020" fill="#D97757"/>
<rect x="10.000" y="7.000" width="1.020" height="1.020" fill="#D97757"/>
<rect x="11.000" y="7.000" width="1.020" height="1.020" fill="#D97757"/>
<rect x="1.000" y="8.000" width="1.020" height="1.020" fill="#D97757"/>
<rect x="2.000" y="8.000" width="1.020" height="1.020" fill="#D97757"/>
<rect x="3.000" y="8.000" width="1.020" height="1.020" fill="#D97757"/>
<rect x="4.000" y="8.000" width="1.020" height="1.020" fill="#D97757"/>
<rect x="5.000" y="8.000" width="1.020" height="1.020" fill="#D97757"/>
<rect x="6.000" y="8.000" width="1.020" height="1.020" fill="#D97757"/>
<rect x="7.000" y="8.000" width="1.020" height="1.020" fill="#D97757"/>
<rect x="8.000" y="8.000" width="1.020" height="1.020" fill="#D97757"/>
<rect x="9.000" y="8.000" width="1.020" height="1.020" fill="#D97757"/>
<rect x="10.000" y="8.000" width="1.020" height="1.020" fill="#D97757"/>
<rect x="11.000" y="8.000" width="1.020" height="1.020" fill="#D97757"/>
<rect x="12.000" y="8.000" width="1.020" height="1.020" fill="#D97757"/>
<rect x="1.000" y="9.000" width="1.020" height="1.020" fill="#D97757"/>
<rect x="2.000" y="9.000" width="1.020" height="1.020" fill="#D97757"/>
<rect x="3.000" y="9.000" width="1.020" height="1.020" fill="#D97757"/>
<rect x="4.000" y="9.000" width="1.020" height="1.020" fill="#D97757"/>
<rect x="5.000" y="9.000" width="1.020" height="1.020" fill="#D97757"/>
<rect x="6.000" y="9.000" width="1.020" height="1.020" fill="#D97757"/>
<rect x="7.000" y="9.000" width="1.020" height="1.020" fill="#D97757"/>
<rect x="8.000" y="9.000" width="1.020" height="1.020" fill="#D97757"/>
<rect x="9.000" y="9.000" width="1.020" height="1.020" fill="#D97757"/>
<rect x="10.000" y="9.000" width="1.020" height="1.020" fill="#D97757"/>
<rect x="11.000" y="9.000" width="1.020" height="1.020" fill="#D97757"/>
<rect x="12.000" y="9.000" width="1.020" height="1.020" fill="#D97757"/>
<rect x="1.000" y="10.000" width="1.020" height="1.020" fill="#D97757"/>
<rect x="2.000" y="10.000" width="1.020" height="1.020" fill="#D97757"/>
<rect x="3.000" y="10.000" width="1.020" height="1.020" fill="#D97757"/>
<rect x="4.000" y="10.000" width="1.020" height="1.020" fill="#D97757"/>
<rect x="5.000" y="10.000" width="1.020" height="1.020" fill="#D97757"/>
<rect x="6.000" y="10.000" width="1.020" height="1.020" fill="#D97757"/>
<rect x="7.000" y="10.000" width="1.020" height="1.020" fill="#D97757"/>
<rect x="8.000" y="10.000" width="1.020" height="1.020" fill="#D97757"/>
<rect x="9.000" y="10.000" width="1.020" height="1.020" fill="#D97757"/>
<rect x="10.000" y="10.000" width="1.020" height="1.020" fill="#D97757"/>
<rect x="11.000" y="10.000" width="1.020" height="1.020" fill="#D97757"/>
<rect x="12.000" y="10.000" width="1.020" height="1.020" fill="#D97757"/>
<rect x="1.000" y="11.000" width="1.020" height="1.020" fill="#D97757"/>
<rect x="2.000" y="11.000" width="1.020" height="1.020" fill="#D97757"/>
<rect x="3.000" y="11.000" width="1.020" height="1.020" fill="#D97757"/>
<rect x="4.000" y="11.000" width="1.020" height="1.020" fill="#D97757"/>
<rect x="9.000" y="11.000" width="1.020" height="1.020" fill="#D97757"/>
<rect x="10.000" y="11.000" width="1.020" height="1.020" fill="#D97757"/>
<rect x="11.000" y="11.000" width="1.020" height="1.020" fill="#D97757"/>
<rect x="12.000" y="11.000" width="1.020" height="1.020" fill="#D97757"/>
<rect x="1.000" y="12.000" width="1.020" height="1.020" fill="#D97757"/>
<rect x="2.000" y="12.000" width="1.020" height="1.020" fill="#D97757"/>
<rect x="3.000" y="12.000" width="1.020" height="1.020" fill="#D97757"/>
<rect x="4.000" y="12.000" width="1.020" height="1.020" fill="#D97757"/>
<rect x="9.000" y="12.000" width="1.020" height="1.020" fill="#D97757"/>
<rect x="10.000" y="12.000" width="1.020" height="1.020" fill="#D97757"/>
<rect x="11.000" y="12.000" width="1.020" height="1.020" fill="#D97757"/>
<rect x="12.000" y="12.000" width="1.020" height="1.020" fill="#D97757"/>
<rect x="1.000" y="13.000" width="1.020" height="1.020" fill="#D97757"/>
<rect x="2.000" y="13.000" width="1.020" height="1.020" fill="#D97757"/>
<rect x="3.000" y="13.000" width="1.020" height="1.020" fill="#D97757"/>
<rect x="4.000" y="13.000" width="1.020" height="1.020" fill="#D97757"/>
<rect x="5.000" y="13.000" width="1.020" height="1.020" fill="#D97757"/>
<rect x="6.000" y="13.000" width="1.020" height="1.020" fill="#D97757"/>
<rect x="7.000" y="13.000" width="1.020" height="1.020" fill="#D97757"/>
<rect x="8.000" y="13.000" width="1.020" height="1.020" fill="#D97757"/>
<rect x="9.000" y="13.000" width="1.020" height="1.020" fill="#D97757"/>
<rect x="10.000" y="13.000" width="1.020" height="1.020" fill="#D97757"/>
<rect x="11.000" y="13.000" width="1.020" height="1.020" fill="#D97757"/>
<rect x="12.000" y="13.000" width="1.020" height="1.020" fill="#D97757"/>
<rect x="2.000" y="14.000" width="1.020" height="1.020" fill="#D97757"/>
<rect x="3.000" y="14.000" width="1.020" height="1.020" fill="#D97757"/>
<rect x="4.000" y="14.000" width="1.020" height="1.020" fill="#D97757"/>
<rect x="5.000" y="14.000" width="1.020" height="1.020" fill="#D97757"/>
<rect x="6.000" y="14.000" width="1.020" height="1.020" fill="#D97757"/>
<rect x="7.000" y="14.000" width="1.020" height="1.020" fill="#D97757"/>
<rect x="8.000" y="14.000" width="1.020" height="1.020" fill="#D97757"/>
<rect x="9.000" y="14.000" width="1.020" height="1.020" fill="#D97757"/>
<rect x="10.000" y="14.000" width="1.020" height="1.020" fill="#D97757"/>
<rect x="11.000" y="14.000" width="1.020" height="1.020" fill="#D97757"/>
</svg>
