<svg xmlns="http://www.w3.org/2000/svg" viewBox="0 0 5880.0 952.0" role="img" aria-label="ricecooker">
<g fill="#D97757" transform="translate(58.00,838.00) scale(1,-1)">
<path d="M42 0V120H144V376H54V496H264V424H282Q296 465 330.0 487.5Q364 510 410 510Q484 510 529.0 463.5Q574 417 574 322V300L444 288V302Q444 343 423.0 367.5Q402 392 360 392Q318 392 294.0 363.0Q270 334 270 280V120H384V0Z" transform="translate(0.00,0)"/>
<path d="M317 548Q278 548 250.0 575.5Q222 603 222 643Q222 683 250.0 710.5Q278 738 317 738Q356 738 384.0 710.5Q412 683 412 643Q412 603 384.0 575.5Q356 548 317 548ZM87 0V120H255V376H99V496H381V120H525V0Z" transform="translate(572.00,0)"/>
<path d="M312 -14Q239 -14 180.0 15.5Q121 45 86.5 101.5Q52 158 52 238V250Q52 330 87.0 388.5Q122 447 181.0 478.5Q240 510 312 510Q416 510 481.0 456.0Q546 402 562 314L438 282Q432 326 400.0 358.0Q368 390 310 390Q256 390 217.0 352.0Q178 314 178 247V241Q178 174 217.0 140.0Q256 106 310 106Q368 106 398.5 135.0Q429 164 438 213L562 182Q546 94 482.0 40.0Q418 -14 312 -14Z" transform="translate(1144.00,0)"/>
<path d="M311 -14Q237 -14 180.0 17.5Q123 49 91.0 108.0Q59 167 59 250V256Q59 332 93.0 389.0Q127 446 183.5 478.0Q240 510 309 510Q373 510 419.0 488.0Q465 466 494.5 431.0Q524 396 538.5 354.5Q553 313 553 274V207H189Q191 163 226.0 134.5Q261 106 309 106Q356 106 381.5 123.0Q407 140 417 162L525 102Q514 77 488.5 50.0Q463 23 420.0 4.5Q377 -14 311 -14ZM191 315H425Q419 350 387.5 373.0Q356 396 308 396Q261 396 230.5 371.5Q200 347 191 315Z" transform="translate(1716.00,0)"/>
<path d="M312 -14Q239 -14 180.0 15.5Q121 45 86.5 101.5Q52 158 52 238V250Q52 330 87.0 388.5Q122 447 181.0 478.5Q240 510 312 510Q416 510 481.0 456.0Q546 402 562 314L438 282Q432 326 400.0 358.0Q368 390 310 390Q256 390 217.0 352.0Q178 314 178 247V241Q178 174 217.0 140.0Q256 106 310 106Q368 106 398.5 135.0Q429 164 438 213L562 182Q546 94 482.0 40.0Q418 -14 312 -14Z" transform="translate(2288.00,0)"/>
<path d="M306 -14Q238 -14 179.0 16.0Q120 46 84.0 103.0Q48 160 48 242V254Q48 335 84.0 392.5Q120 450 179.0 480.0Q238 510 306 510Q374 510 433.0 480.0Q492 450 528.0 392.5Q564 335 564 254V242Q564 160 528.0 103.0Q492 46 433.0 16.0Q374 -14 306 -14ZM306 106Q361 106 399.5 141.5Q438 177 438 238V258Q438 320 399.5 355.0Q361 390 306 390Q251 390 212.5 355.0Q174 320 174 258V238Q174 177 212.5 141.5Q251 106 306 106Z" transform="translate(2860.00,0)"/>
<path d="M306 -14Q238 -14 179.0 16.0Q120 46 84.0 103.0Q48 160 48 242V254Q48 335 84.0 392.5Q120 450 179.0 480.0Q238 510 306 510Q374 510 433.0 480.0Q492 450 528.0 392.5Q564 335 564 254V242Q564 160 528.0 103.0Q492 46 433.0 16.0Q374 -14 306 -14ZM306 106Q361 106 399.5 141.5Q438 177 438 238V258Q438 320 399.5 355.0Q361 390 306 390Q251 390 212.5 355.0Q174 320 174 258V238Q174 177 212.5 141.5Q251 106 306 106Z" transform="translate(3432.00,0)"/>
<path d="M118 0V700H244V314H268L400 496H538V490L378 263V245L554 6V0H410L268 194H244V0Z" transform="translate(4004.00,0)"/>
<path d="M311 -14Q237 -14 180.0 17.5Q123 49 91.0 108.0Q59 167 59 250V256Q59 332 93.0 389.0Q127 446 183.5 478.0Q240 510 309 510Q373 510 419.0 488.0Q465 466 494.5 431.0Q524 396 538.5 354.5Q553 313 553 274V207H189Q191 163 226.0 134.5Q261 106 309 106Q356 106 381.5 123.0Q407 140 417 162L525 102Q514 77 488.5 50.0Q463 23 420.0 4.5Q377 -14 311 -14ZM191 315H425Q419 350 387.5 373.0Q356 396 308 396Q261 396 230.5 371.5Q200 347 191 315Z" transform="translate(4576.00,0)"/>
<path d="M42 0V120H144V376H54V496H264V424H282Q296 465 330.0 487.5Q364 510 410 510Q484 510 529.0 463.5Q574 417 574 322V300L444 288V302Q444 343 423.0 367.5Q402 392 360 392Q318 392 294.0 363.0Q270 334 270 280V120H384V0Z" transform="translate(5148.00,0)"/>
</g>
</svg>
